<svg id="Layer_1" data-name="Layer 1" xmlns="http://www.w3.org/2000/svg" viewBox="0 0 184.67 85.3"><defs><style>.cls-1{fill:#ed8822;}.cls-2{fill:#2c2c80;}.cls-3{fill:#5c5c5c;}</style></defs><title>Artboard 1</title><path class="cls-1" d="M70.76,7.2H43.17A1.93,1.93,0,0,0,41,8.89q-4.6,21.69-4.6,22a1.27,1.27,0,0,0,1.46,1.41H65.49q.9,0,.9.42c0,.19-.23.42-.68.7L61.23,37.2A4.88,4.88,0,0,1,58,38.46H36.55a2,2,0,0,0-2.13,1.84L28.59,68a2,2,0,0,1-2.13,1.69H5c-1,0-1.46-.42-1.46-1.27V68L16.14,8.89v-.7a6.6,6.6,0,0,0-1.91-3.95,9.3,9.3,0,0,1-1.9-2.67c0-.47.33-.71,1-.71H72.11a1.26,1.26,0,0,1,1.45,1.41Q73.56,7.21,70.76,7.2Z"/><path class="cls-1" d="M71.43,69.73c-1,0-1.46-.42-1.46-1.27V68L82.53,8.89v-.7a6.58,6.58,0,0,0-1.9-3.95,9.46,9.46,0,0,1-1.91-2.67c0-.47.34-.71,1-.71h27.7q1.35,0,1.35,1.41v.42L95,68a2,2,0,0,1-2.13,1.69Z"/><path class="cls-1" d="M124.7,68.18,137.26,9V8.75a1.26,1.26,0,0,0-1.45-1.41H120.67A3.08,3.08,0,0,1,118,6.07a34.24,34.24,0,0,1-3.25-4.36c0-.38.34-.57,1-.57h65.05c1,0,1.46.43,1.46,1.27q0,4.94-2.81,4.93H164.29A2,2,0,0,0,162.16,9L149.71,68.18a2,2,0,0,1-2.13,1.69H126.16c-1,0-1.46-.42-1.46-1.27Z"/><path class="cls-2" d="M175.17,71.75a4.58,4.58,0,0,1-1.34,2.5,1.89,1.89,0,0,1-2,.43,1.92,1.92,0,0,1-.6-.37L160,65.91l-.18-.07c-.28-.11-.67,0-1.16.36s-.77.5-.84.47-.11-.18-.05-.43l2.48-10.51c.09-.37.23-.52.45-.44l.1,0,13.68,10.29.1,0c.24.09.4,0,.49-.42l.79-3.37a.84.84,0,0,0-.27-1L161.87,50.6a.86.86,0,0,1-.23-1l1.93-8.17c.08-.34.22-.48.43-.4l.11,0,12.67,9.5a5.18,5.18,0,0,1,1.7,2.91,8.29,8.29,0,0,1,.05,4Z"/><path class="cls-2" d="M170.74,14a2,2,0,0,1,2.06-.42,3.24,3.24,0,0,1,.61.32l5.82,4.35A5.19,5.19,0,0,1,181,21.18a8.29,8.29,0,0,1,0,4L178.93,34a.9.9,0,0,0,.23,1l3.57,2.63a.9.9,0,0,1,.23,1L181,46.75c-.08.37-.23.52-.45.44l-.1,0L166.77,36.84a.56.56,0,0,0-.17-.11c-.28-.1-.67,0-1.16.38s-.78.53-.85.5-.15-.19-.09-.45l4.88-20.68A4.54,4.54,0,0,1,170.74,14ZM178,28.53l-7.9-5.92a.21.21,0,0,0-.1-.08c-.21-.08-.36.07-.45.44l-.8,3.41a.86.86,0,0,0,.23,1l7.91,5.91.1.08c.21.07.35-.07.44-.44l.8-3.4A.85.85,0,0,0,178,28.53Z"/><path class="cls-3" d="M5.62,84.33H.73L3,74.64H4L2,83.38H5.83Z"/><path class="cls-3" d="M6.93,84.33l2.23-9.69h5.4l-.22,1H10l-.77,3.33H12.8l-.23.95H9l-.81,3.5h4.33l-.21,1Z"/><path class="cls-3" d="M21.46,74.64h1.08l-4.62,9.69H15.71l-.13-9.69h1.08l0,8.74h.63Z"/><path class="cls-3" d="M21.91,84.33l2.23-9.69h5.4l-.22,1H25l-.77,3.33h3.56l-.23.95H24l-.81,3.5h4.33l-.21,1Z"/><path class="cls-3" d="M34,84.33H29.12l2.24-9.69h1.07l-2,8.74h3.81Z"/><path class="cls-3" d="M41.48,82.32c0,.8.59,1.2,1.79,1.2A2.33,2.33,0,0,0,44.93,83a3.08,3.08,0,0,0,.8-1.62l1.56-6.74h1.08l-1.56,6.74a4.33,4.33,0,0,1-1.21,2.34,3.33,3.33,0,0,1-2.29.75c-1.93,0-2.9-.67-2.9-2a4.72,4.72,0,0,1,.16-1.28l1.51-6.54h1.08l-1.54,6.65A4,4,0,0,0,41.48,82.32Z"/><path class="cls-3" d="M52.31,81.08H50.2l-.76,3.25H48.38l2.24-9.69h3.05a2.5,2.5,0,0,1,1.82.57,2.36,2.36,0,0,1,.57,1.73,4.41,4.41,0,0,1-1,3A3.47,3.47,0,0,1,52.31,81.08Zm.17-1a2.13,2.13,0,0,0,1.83-.89A3.9,3.9,0,0,0,55,77a1.42,1.42,0,0,0-.33-1,1.48,1.48,0,0,0-1.08-.33H51.46l-1,4.53Z"/><path class="cls-3" d="M68.66,74.64l-4.1,5.55-1,4.14h-1l1-4.22-1.49-5.47h1.1l1.13,4.53,3.21-4.53Z"/><path class="cls-3" d="M75.13,81a5.7,5.7,0,0,1-1.68,2.59,4,4,0,0,1-2.6.89,2.54,2.54,0,0,1-2.93-3,9.88,9.88,0,0,1,.58-3.32,6.29,6.29,0,0,1,1.66-2.64,3.66,3.66,0,0,1,2.56-1c2,0,3,1,3,2.9A10.69,10.69,0,0,1,75.13,81ZM69,81.32a2.54,2.54,0,0,0,.45,1.75,2,2,0,0,0,1.46.45,2.6,2.6,0,0,0,1.7-.56,4.9,4.9,0,0,0,1.47-2.35,10.11,10.11,0,0,0,.51-3.14,2.14,2.14,0,0,0-.47-1.53,1.91,1.91,0,0,0-1.43-.48,2.49,2.49,0,0,0-1.6.51,5.33,5.33,0,0,0-1.53,2.43A9.12,9.12,0,0,0,69,81.32Z"/><path class="cls-3" d="M77.9,82.32c0,.8.6,1.2,1.79,1.2A2.33,2.33,0,0,0,81.35,83a3,3,0,0,0,.8-1.62l1.56-6.74h1.08l-1.56,6.74A4.27,4.27,0,0,1,82,83.72a3.33,3.33,0,0,1-2.29.75c-1.93,0-2.9-.67-2.9-2A5.15,5.15,0,0,1,77,81.18l1.51-6.54h1.08L78,81.29A4,4,0,0,0,77.9,82.32Z"/><path class="cls-3" d="M90,74.64a2.83,2.83,0,0,1,1.9.55,2.46,2.46,0,0,1,.62,1.93A3.46,3.46,0,0,1,90,80.57l1.07,3.76H90l-1-3.62H86.72l-.86,3.62H84.8L87,74.64ZM91.39,77A1.45,1.45,0,0,0,91,75.9a1.71,1.71,0,0,0-1.16-.32h-2l-1,4.19H89A2.21,2.21,0,0,0,90.74,79,3,3,0,0,0,91.39,77Z"/><path class="cls-3" d="M97.44,84.33l2.24-9.69H105l-.22,1h-4.21l-.87,3.82h3.58l-.22.94H99.42l-.92,4Z"/><path class="cls-3" d="M104.32,84.33l2.24-9.69h1.07l-2.24,9.69Z"/><path class="cls-3" d="M108.78,75.6l.22-1h6.26l-.23,1h-2.6l-2,8.73h-1.06l2-8.73Z"/><path class="cls-3" d="M114.42,84.33l2.24-9.69h1.9L120,83.23h.26l2-8.59h1l-2.24,9.69h-1.84l-1.51-8.64h-.28l-2,8.64Z"/><path class="cls-3" d="M123.39,84.33l2.23-9.69H131l-.22,1h-4.33l-.77,3.33h3.56l-.23.95h-3.54l-.81,3.5H129l-.21,1Z"/><path class="cls-3" d="M137.59,75.69a16.38,16.38,0,0,0-2.51-.25,2.38,2.38,0,0,0-1.62.53,1.93,1.93,0,0,0-.59,1.52.94.94,0,0,0,.34.81,6.58,6.58,0,0,0,1.43.64,3.82,3.82,0,0,1,1.51.83,1.88,1.88,0,0,1,.43,1.36,3.19,3.19,0,0,1-.94,2.45,3.49,3.49,0,0,1-2.53.89,10.49,10.49,0,0,1-2.41-.28l-.41-.08.19-.84a17.84,17.84,0,0,0,2.7.25,2.31,2.31,0,0,0,1.68-.59,2.28,2.28,0,0,0,.61-1.71,1.08,1.08,0,0,0-.3-.84,4.64,4.64,0,0,0-1.36-.64,4.36,4.36,0,0,1-1.54-.81,1.74,1.74,0,0,1-.49-1.36,2.87,2.87,0,0,1,.91-2.25,3.64,3.64,0,0,1,2.48-.82,8.46,8.46,0,0,1,2.24.3l.36.1Z"/><path class="cls-3" d="M144.71,75.69a16.26,16.26,0,0,0-2.5-.25,2.38,2.38,0,0,0-1.62.53,1.9,1.9,0,0,0-.59,1.52.94.94,0,0,0,.34.81,6.35,6.35,0,0,0,1.43.64,3.9,3.9,0,0,1,1.51.83,1.93,1.93,0,0,1,.43,1.36,3.23,3.23,0,0,1-.94,2.45,3.51,3.51,0,0,1-2.54.89,10.47,10.47,0,0,1-2.4-.28l-.41-.08.18-.84a17.84,17.84,0,0,0,2.7.25,2.35,2.35,0,0,0,1.69-.59,2.28,2.28,0,0,0,.61-1.71,1,1,0,0,0-.31-.84,4.51,4.51,0,0,0-1.36-.64,4.45,4.45,0,0,1-1.54-.81,1.78,1.78,0,0,1-.49-1.36,2.88,2.88,0,0,1,.92-2.25,3.61,3.61,0,0,1,2.47-.82,8.4,8.4,0,0,1,2.24.3l.37.1Z"/></svg>